<?xml version="1.0" encoding="iso-8859-1"?>
<!-- Generator: Adobe Illustrator 19.0.0, SVG Export Plug-In . SVG Version: 6.00 Build 0)  -->
<svg version="1.1" id="Layer_1" xmlns="http://www.w3.org/2000/svg" xmlns:xlink="http://www.w3.org/1999/xlink" x="0px" y="0px"
	 viewBox="0 0 481.685 481.685" style="enable-background:new 0 0 481.685 481.685;" xml:space="preserve">
<g id="XMLID_1150_">
	<path id="XMLID_1019_" style="fill:#AB2300;" d="M408.182,18.605H73.503c-8.284,0-15,6.716-15,15v433.08c0,8.284,6.716,15,15,15
		h334.679c8.284,0,15-6.716,15-15V33.605C423.182,25.321,416.466,18.605,408.182,18.605z"/>
	<path id="XMLID_1018_" style="fill:#891C00;" d="M408.182,18.605H240.843v463.08h167.339c8.284,0,15-6.716,15-15V33.605
		C423.182,25.321,416.466,18.605,408.182,18.605z"/>
	<polygon id="XMLID_1092_" style="fill:#891C00;" points="162.271,118.251 127.985,102.796 93.698,118.251 93.698,19 162.271,19 	
		"/>
	<polygon id="XMLID_1014_" style="fill:#1A6FB0;" points="163.271,99.251 128.985,83.796 94.698,99.251 94.698,0 163.271,0 	"/>
	<rect id="XMLID_1091_" x="84.777" y="149.145" style="fill:#891C00;" width="305" height="134.5"/>
	<rect id="XMLID_1081_" x="84.777" y="131.145" style="fill:#FFFFFF;" width="305" height="134.5"/>
	<rect id="XMLID_1093_" x="240.777" y="131.145" style="fill:#EAEAEA;" width="149" height="134.5"/>
	<g id="XMLID_1017_">
		<path id="XMLID_1088_" style="fill:#5EAC24;" d="M154.679,156.057h16.779l29.364,80.496h-19.047l-6.235-18.026h-25.057
			l-6.122,18.026h-19.047L154.679,156.057z M172.479,205.715l-9.41-28.457l-9.637,28.457H172.479z"/>
	</g>
	<g id="XMLID_1016_">
		<path id="XMLID_1086_" style="fill:#AB2300;" d="M288.163,195.624c0-4.836,0.906-9.655,2.721-14.456
			c1.813-4.799,4.459-9.087,7.937-12.868c3.476-3.779,7.709-6.84,12.697-9.184c4.989-2.342,10.657-3.515,17.007-3.515
			c7.557,0,14.115,1.627,19.67,4.876c5.556,3.251,9.693,7.482,12.415,12.698l-14.285,9.977c-0.907-2.115-2.061-3.872-3.458-5.272
			c-1.399-1.398-2.931-2.531-4.592-3.401c-1.663-0.868-3.364-1.474-5.102-1.814c-1.74-0.34-3.44-0.51-5.103-0.51
			c-3.554,0-6.651,0.719-9.297,2.154c-2.646,1.436-4.838,3.287-6.575,5.555c-1.739,2.268-3.024,4.838-3.854,7.71
			c-0.833,2.873-1.247,5.782-1.247,8.73c0,3.174,0.49,6.236,1.474,9.184c0.981,2.948,2.398,5.555,4.251,7.823
			c1.852,2.268,4.082,4.063,6.689,5.385c2.607,1.323,5.536,1.984,8.786,1.984c1.662,0,3.382-0.207,5.159-0.624
			c1.774-0.414,3.476-1.058,5.102-1.927c1.625-0.868,3.118-2.002,4.479-3.401c1.36-1.397,2.455-3.118,3.288-5.159l15.192,8.957
			c-1.21,2.948-3.005,5.594-5.386,7.936c-2.381,2.344-5.121,4.308-8.22,5.895c-3.1,1.587-6.388,2.797-9.863,3.628
			c-3.478,0.831-6.879,1.247-10.204,1.247c-5.821,0-11.167-1.19-16.042-3.571c-4.876-2.381-9.07-5.536-12.585-9.467
			c-3.515-3.929-6.235-8.39-8.163-13.378C289.125,205.828,288.163,200.765,288.163,195.624z"/>
	</g>
	<g id="XMLID_1015_">
		<path id="XMLID_1082_" style="fill:#1E81CE;" d="M280.344,215.918c0,3.478-0.72,6.502-2.154,9.07
			c-1.437,2.571-3.401,4.705-5.896,6.406c-2.494,1.701-5.405,2.987-8.729,3.855c-3.327,0.87-6.842,1.304-10.544,1.304h-39.228
			v-80.496h44.782c2.796,0,5.329,0.606,7.597,1.814c2.268,1.21,4.194,2.778,5.782,4.705c1.587,1.927,2.815,4.121,3.685,6.576
			c0.868,2.457,1.304,4.971,1.304,7.54c0,3.854-0.964,7.483-2.892,10.884c-1.927,3.401-4.818,5.972-8.673,7.709
			c4.609,1.361,8.257,3.78,10.94,7.256C279.001,206.018,280.344,210.477,280.344,215.918z M232.386,171.929v16.666h18.254
			c2.04,0,3.854-0.68,5.441-2.04c1.588-1.361,2.381-3.476,2.381-6.349c0-2.645-0.699-4.686-2.098-6.122
			c-1.399-1.435-3.08-2.154-5.045-2.154h-18.933V171.929z M261.411,212.177c0-2.494-0.72-4.609-2.154-6.349
			c-1.436-1.738-3.251-2.607-5.442-2.607h-21.428v17.573h20.635c2.418,0,4.421-0.793,6.009-2.381
			C260.617,216.826,261.411,214.748,261.411,212.177z"/>
	</g>
</g>
<g>
</g>
<g>
</g>
<g>
</g>
<g>
</g>
<g>
</g>
<g>
</g>
<g>
</g>
<g>
</g>
<g>
</g>
<g>
</g>
<g>
</g>
<g>
</g>
<g>
</g>
<g>
</g>
<g>
</g>
</svg>
